<svg width="32" height="32" viewBox="0 0 32 32" fill="none" xmlns="http://www.w3.org/2000/svg">
<rect width="32" height="32" rx="16" fill="#EDEEFC"/>
<path d="M14.7501 13.5019C14.8969 13.0845 15.1867 12.7325 15.5682 12.5083C15.9497 12.2841 16.3982 12.2022 16.8343 12.277C17.2704 12.3518 17.6659 12.5785 17.9509 12.917C18.2358 13.2555 18.3918 13.6839 18.3911 14.1264C18.3911 15.3755 16.5175 16 16.5175 16M16.5417 18.5H16.55M16.4168 22.6667C20.3288 22.6667 23.5001 19.4953 23.5001 15.5833C23.5001 11.6713 20.3288 8.5 16.4168 8.5C12.5047 8.5 9.33343 11.6713 9.33343 15.5833C9.33343 16.375 9.4633 17.1363 9.7029 17.8472C9.79307 18.1147 9.83815 18.2484 9.84628 18.3512C9.85431 18.4527 9.84824 18.5238 9.82314 18.6225C9.79772 18.7223 9.74159 18.8262 9.62934 19.034L8.26629 21.557C8.07187 21.9168 7.97465 22.0968 7.99641 22.2356C8.01536 22.3566 8.08655 22.4631 8.19107 22.5269C8.31108 22.6001 8.51451 22.579 8.92138 22.537L13.1889 22.0958C13.3181 22.0825 13.3827 22.0758 13.4416 22.0781C13.4996 22.0803 13.5405 22.0857 13.597 22.0987C13.6544 22.112 13.7266 22.1398 13.8711 22.1954C14.6611 22.4998 15.5194 22.6667 16.4168 22.6667Z" stroke="#4B56E3" stroke-linecap="round" stroke-linejoin="round"/>
</svg>
