<svg width="32" height="32" viewBox="0 0 32 32" fill="none" xmlns="http://www.w3.org/2000/svg">
<path fill-rule="evenodd" clip-rule="evenodd" d="M9.66002 2.66666H22.34C23.8851 2.66666 24.6577 2.66666 25.2808 2.88347C26.4624 3.2946 27.39 4.24958 27.7894 5.46594C28 6.10739 28 6.90273 28 8.4934V27.1656C28 28.3099 26.6867 28.917 25.8559 28.1568C25.3678 27.7102 24.6322 27.7102 24.1441 28.1568L23.5 28.7462C22.6446 29.529 21.3554 29.529 20.5 28.7462C19.6446 27.9634 18.3554 27.9634 17.5 28.7462C16.6446 29.529 15.3554 29.529 14.5 28.7462C13.6446 27.9634 12.3554 27.9634 11.5 28.7462C10.6446 29.529 9.35545 29.529 8.5 28.7462L7.85587 28.1568C7.36777 27.7102 6.63223 27.7102 6.14413 28.1568C5.31333 28.917 4 28.3099 4 27.1656V8.4934C4 6.90273 4 6.10739 4.21061 5.46594C4.60997 4.24958 5.53763 3.2946 6.71918 2.88347C7.34228 2.66666 8.11486 2.66666 9.66002 2.66666ZM9.33333 8.99999C8.78105 8.99999 8.33333 9.44771 8.33333 9.99999C8.33333 10.5523 8.78105 11 9.33333 11H10C10.5523 11 11 10.5523 11 9.99999C11 9.44771 10.5523 8.99999 10 8.99999H9.33333ZM14 8.99999C13.4477 8.99999 13 9.44771 13 9.99999C13 10.5523 13.4477 11 14 11H22.6667C23.219 11 23.6667 10.5523 23.6667 9.99999C23.6667 9.44771 23.219 8.99999 22.6667 8.99999H14ZM9.33333 13.6667C8.78105 13.6667 8.33333 14.1144 8.33333 14.6667C8.33333 15.2189 8.78105 15.6667 9.33333 15.6667H10C10.5523 15.6667 11 15.2189 11 14.6667C11 14.1144 10.5523 13.6667 10 13.6667H9.33333ZM14 13.6667C13.4477 13.6667 13 14.1144 13 14.6667C13 15.2189 13.4477 15.6667 14 15.6667H22.6667C23.219 15.6667 23.6667 15.2189 23.6667 14.6667C23.6667 14.1144 23.219 13.6667 22.6667 13.6667H14ZM9.33333 18.3333C8.78105 18.3333 8.33333 18.781 8.33333 19.3333C8.33333 19.8856 8.78105 20.3333 9.33333 20.3333H10C10.5523 20.3333 11 19.8856 11 19.3333C11 18.781 10.5523 18.3333 10 18.3333H9.33333ZM14 18.3333C13.4477 18.3333 13 18.781 13 19.3333C13 19.8856 13.4477 20.3333 14 20.3333H22.6667C23.219 20.3333 23.6667 19.8856 23.6667 19.3333C23.6667 18.781 23.219 18.3333 22.6667 18.3333H14Z" fill="#F5F6FA"/>
</svg>
