<svg width="32" height="32" viewBox="0 0 32 32" fill="none" xmlns="http://www.w3.org/2000/svg">
<rect width="32" height="32" rx="16" fill="#EDEEFC"/>
<path d="M17.6666 7.89128V11.3334C17.6666 11.8001 17.6666 12.0335 17.7574 12.2117C17.8373 12.3685 17.9648 12.496 18.1216 12.5759C18.2999 12.6667 18.5332 12.6667 18.9999 12.6667H22.442M19.3333 16.8333H12.6666M19.3333 20.1667H12.6666M14.3333 13.5H12.6666M17.6666 7.66667H13.3333C11.9331 7.66667 11.2331 7.66667 10.6983 7.93915C10.2279 8.17883 9.84542 8.56129 9.60574 9.03169C9.33325 9.56647 9.33325 10.2665 9.33325 11.6667V20.3333C9.33325 21.7335 9.33325 22.4335 9.60574 22.9683C9.84542 23.4387 10.2279 23.8212 10.6983 24.0609C11.2331 24.3333 11.9331 24.3333 13.3333 24.3333H18.6666C20.0667 24.3333 20.7668 24.3333 21.3016 24.0609C21.772 23.8212 22.1544 23.4387 22.3941 22.9683C22.6666 22.4335 22.6666 21.7335 22.6666 20.3333V12.6667L17.6666 7.66667Z" stroke="#4B56E3" stroke-linecap="round" stroke-linejoin="round"/>
</svg>
