<svg width="32" height="32" viewBox="0 0 32 32" fill="none" xmlns="http://www.w3.org/2000/svg">
<circle cx="16" cy="16" r="16" fill="#14C3B9"/>
<path d="M15.3018 23.3147H16.3125V21.9084C18.8086 21.7415 20.5928 20.4055 20.5928 18.1995C20.5928 16.2747 19.3359 15.3079 16.9365 14.7629L16.3125 14.6311V11.5286C17.2969 11.6692 17.9561 12.2141 18.0791 13.1633H20.4258C20.3379 11.0891 18.7559 9.71802 16.3125 9.54224V8.10962H15.3018V9.53345C12.8848 9.68286 11.1533 11.0452 11.1533 13.1458C11.1533 15.0442 12.419 16.0725 14.7129 16.5911L15.3018 16.7317V19.9397C14.1065 19.8079 13.4736 19.1838 13.333 18.2874H10.9775C11.0391 20.4846 12.832 21.7766 15.3018 21.9172V23.3147ZM13.6143 12.9172C13.6143 12.2141 14.1943 11.6428 15.3018 11.511V14.3938C14.1152 14.0774 13.6143 13.6204 13.6143 12.9172ZM18.1406 18.4719C18.1406 19.2717 17.5342 19.8167 16.3125 19.9397V16.9602C17.6748 17.303 18.1406 17.6985 18.1406 18.4719Z" fill="white"/>
</svg>
