<svg width="25" height="24" viewBox="0 0 25 24" fill="none" xmlns="http://www.w3.org/2000/svg">
<path fill-rule="evenodd" clip-rule="evenodd" d="M3.0192 7.82274C2.5 8.77128 2.5 9.91549 2.5 12.2039V13.725C2.5 17.6258 2.5 19.5763 3.67157 20.7881C4.84315 22 6.72876 22 10.5 22H14.5C18.2712 22 20.1569 22 21.3284 20.7881C22.5 19.5763 22.5 17.6258 22.5 13.725V12.2039C22.5 9.91549 22.5 8.77128 21.9808 7.82274C21.4616 6.87421 20.5131 6.28551 18.616 5.10812L16.616 3.86687C14.6106 2.62229 13.6079 2 12.5 2C11.3921 2 10.3894 2.62229 8.38403 3.86687L6.38403 5.10813C4.48695 6.28551 3.5384 6.87421 3.0192 7.82274ZM9.94661 15.3975C9.61385 15.1508 9.14413 15.2206 8.89747 15.5534C8.65082 15.8862 8.72062 16.3559 9.05339 16.6025C10.0258 17.3233 11.215 17.75 12.5 17.75C13.785 17.75 14.9742 17.3233 15.9466 16.6025C16.2794 16.3559 16.3492 15.8862 16.1025 15.5534C15.8559 15.2206 15.3862 15.1508 15.0534 15.3975C14.325 15.9373 13.4459 16.25 12.5 16.25C11.5541 16.25 10.675 15.9373 9.94661 15.3975Z" fill="#4B56E3"/>
</svg>
