<svg width="32" height="32" viewBox="0 0 32 32" fill="none" xmlns="http://www.w3.org/2000/svg">
<circle cx="16" cy="16" r="16" fill="#A922E7"/>
<path d="M6.92347 20V12.7273H8.68129V15.8026H8.77717L11.1813 12.7273H13.2516L10.6735 15.973L13.2978 20H11.1955L9.38441 17.1413L8.68129 18.0291V20H6.92347ZM18.707 16.2109L17.1126 16.2536C17.096 16.1399 17.051 16.0393 16.9776 15.9517C16.9042 15.8617 16.8084 15.7919 16.69 15.7422C16.574 15.6901 16.439 15.6641 16.2852 15.6641C16.0839 15.6641 15.9123 15.7043 15.7702 15.7848C15.6306 15.8653 15.5619 15.9742 15.5643 16.1115C15.5619 16.218 15.6045 16.3104 15.6921 16.3885C15.7821 16.4666 15.9419 16.5294 16.1715 16.5767L17.2227 16.7756C17.7672 16.8797 18.172 17.0526 18.4371 17.294C18.7047 17.5355 18.8396 17.8551 18.842 18.2528C18.8396 18.6269 18.7283 18.9524 18.5082 19.2294C18.2904 19.5064 17.9921 19.7218 17.6133 19.8757C17.2345 20.0272 16.8013 20.103 16.3136 20.103C15.5347 20.103 14.9203 19.9432 14.4705 19.6236C14.0231 19.3016 13.7674 18.8707 13.7035 18.331L15.4187 18.2884C15.4566 18.4872 15.5548 18.6387 15.7134 18.7429C15.872 18.8471 16.0745 18.8991 16.3207 18.8991C16.5432 18.8991 16.7243 18.8577 16.864 18.7749C17.0037 18.692 17.0747 18.5819 17.0771 18.4446C17.0747 18.3215 17.0202 18.2232 16.9137 18.1499C16.8072 18.0741 16.6403 18.0149 16.413 17.9723L15.4613 17.7912C14.9144 17.6918 14.5072 17.5083 14.2397 17.2408C13.9722 16.9709 13.8396 16.6276 13.842 16.2109C13.8396 15.8464 13.9367 15.535 14.1332 15.277C14.3297 15.0166 14.609 14.8177 14.9712 14.6804C15.3335 14.5431 15.7608 14.4744 16.2532 14.4744C16.9918 14.4744 17.5742 14.6295 18.0004 14.9396C18.4265 15.2474 18.6621 15.6712 18.707 16.2109ZM19.6969 20V12.7273H21.4547V15.6463H24.3205V12.7273H26.0748V20H24.3205V17.0774H21.4547V20H19.6969Z" fill="white"/>
</svg>
