<svg width="25" height="24" viewBox="0 0 25 24" fill="none" xmlns="http://www.w3.org/2000/svg">
<path fill-rule="evenodd" clip-rule="evenodd" d="M14.5 22H10.5C6.72876 22 4.84315 22 3.67157 20.8284C2.5 19.6569 2.5 17.7712 2.5 14V10C2.5 6.22876 2.5 4.34315 3.67157 3.17157C4.84315 2 6.73869 2 10.5298 2C11.1358 2 11.6214 2 12.03 2.01666C12.0166 2.09659 12.0095 2.17813 12.0092 2.26057L12 5.09497C11.9999 6.19207 11.9998 7.16164 12.1049 7.94316C12.2188 8.79028 12.4803 9.63726 13.1716 10.3285C13.8628 11.0198 14.7098 11.2813 15.5569 11.3952C16.3385 11.5003 17.308 11.5002 18.4051 11.5001L18.5 11.5001H22.4574C22.5 12.0344 22.5 12.6901 22.5 13.5629V14C22.5 17.7712 22.5 19.6569 21.3284 20.8284C20.1569 22 18.2712 22 14.5 22ZM5.75 14.5C5.75 14.0858 6.08579 13.75 6.5 13.75H14.5C14.9142 13.75 15.25 14.0858 15.25 14.5C15.25 14.9142 14.9142 15.25 14.5 15.25H6.5C6.08579 15.25 5.75 14.9142 5.75 14.5ZM5.75 18C5.75 17.5858 6.08579 17.25 6.5 17.25H12C12.4142 17.25 12.75 17.5858 12.75 18C12.75 18.4142 12.4142 18.75 12 18.75H6.5C6.08579 18.75 5.75 18.4142 5.75 18Z" fill="#4B56E3"/>
<path d="M19.8517 7.61665L15.8929 4.05375C14.7651 3.03868 14.2012 2.53114 13.5092 2.26562L13.5 5.00011C13.5 7.35713 13.5 8.53564 14.2322 9.26787C14.9645 10.0001 16.143 10.0001 18.5 10.0001H22.0801C21.7175 9.29588 21.0684 8.71164 19.8517 7.61665Z" fill="#4B56E3"/>
</svg>
