<svg width="25" height="24" viewBox="0 0 25 24" fill="none" xmlns="http://www.w3.org/2000/svg">
<path fill-rule="evenodd" clip-rule="evenodd" d="M5.75 14.5C5.75 14.0858 6.08579 13.75 6.5 13.75H14.5C14.9142 13.75 15.25 14.0858 15.25 14.5C15.25 14.9142 14.9142 15.25 14.5 15.25H6.5C6.08579 15.25 5.75 14.9142 5.75 14.5Z" fill="#8F8F8F"/>
<path fill-rule="evenodd" clip-rule="evenodd" d="M5.75 18C5.75 17.5858 6.08579 17.25 6.5 17.25H12C12.4142 17.25 12.75 17.5858 12.75 18C12.75 18.4142 12.4142 18.75 12 18.75H6.5C6.08579 18.75 5.75 18.4142 5.75 18Z" fill="#8F8F8F"/>
<path fill-rule="evenodd" clip-rule="evenodd" d="M12.75 2.83416C12.2896 2.75592 11.662 2.74999 10.5298 2.74999C8.61311 2.74999 7.25075 2.75157 6.21785 2.88981C5.20596 3.02524 4.62453 3.27927 4.2019 3.70189C3.77869 4.1251 3.52502 4.70475 3.38976 5.71084C3.25159 6.7385 3.25 8.09317 3.25 9.99999V14C3.25 15.9068 3.25159 17.2615 3.38976 18.2891C3.52502 19.2952 3.77869 19.8749 4.2019 20.2981C4.62511 20.7213 5.20476 20.975 6.21085 21.1102C7.23851 21.2484 8.59318 21.25 10.5 21.25H14.5C16.4068 21.25 17.7615 21.2484 18.7892 21.1102C19.7952 20.975 20.3749 20.7213 20.7981 20.2981C21.2213 19.8749 21.475 19.2952 21.6102 18.2891C21.7484 17.2615 21.75 15.9068 21.75 14V13.5629C21.75 12.0269 21.7392 11.2987 21.5762 10.75H18.4463C17.3135 10.75 16.3877 10.75 15.6569 10.6518C14.8929 10.5491 14.2306 10.3268 13.7019 9.79809C13.1732 9.26939 12.9509 8.60706 12.8482 7.8431C12.75 7.11224 12.75 6.18651 12.75 5.05368V2.83416ZM14.25 3.60944V4.99999C14.25 6.1997 14.2516 7.02404 14.3348 7.64323C14.4152 8.24085 14.559 8.53389 14.7626 8.73743C14.9661 8.94097 15.2591 9.0848 15.8568 9.16515C16.476 9.2484 17.3003 9.24999 18.5 9.24999H20.5195C20.223 8.96244 19.8432 8.61791 19.35 8.17401L15.3912 4.61111C14.9058 4.17427 14.5446 3.85181 14.25 3.60944ZM10.6755 1.24996C12.0601 1.24959 12.9546 1.24935 13.7779 1.56529C14.6012 1.88123 15.2632 2.47728 16.2873 3.39949C16.3226 3.43133 16.3584 3.46355 16.3947 3.49617L20.3534 7.05906C20.3956 7.09699 20.4372 7.13444 20.4783 7.17143C21.662 8.23608 22.4274 8.92452 22.8391 9.84896C23.2508 10.7734 23.2505 11.8029 23.25 13.3949C23.25 13.4502 23.25 13.5062 23.25 13.5629V14.0564C23.25 15.8942 23.25 17.3498 23.0969 18.489C22.9392 19.6614 22.6071 20.6104 21.8588 21.3587C21.1104 22.1071 20.1614 22.4392 18.989 22.5969C17.8498 22.75 16.3942 22.75 14.5564 22.75H10.4436C8.60583 22.75 7.15019 22.75 6.01098 22.5969C4.83856 22.4392 3.88961 22.1071 3.14124 21.3587C2.39288 20.6104 2.06076 19.6614 1.90314 18.489C1.74997 17.3498 1.74998 15.8942 1.75 14.0564V9.94357C1.74998 8.10581 1.74997 6.65018 1.90314 5.51097C2.06076 4.33854 2.39288 3.3896 3.14124 2.64123C3.89019 1.89228 4.84232 1.56053 6.01887 1.40306C7.16283 1.24996 8.6257 1.24997 10.4735 1.24999L10.5298 1.24999C10.5789 1.24999 10.6275 1.24998 10.6755 1.24996Z" fill="#8F8F8F"/>
</svg>
