<svg width="33" height="32" viewBox="0 0 33 32" fill="none" xmlns="http://www.w3.org/2000/svg">
<path d="M29.8334 18.6667V16C29.8334 14.8813 29.8334 13.887 29.8162 13H3.18389C3.16669 13.887 3.16669 14.8813 3.16669 16V18.6667C3.16669 23.695 3.16669 26.2091 4.72878 27.7712C6.29088 29.3333 8.80504 29.3333 13.8334 29.3333H19.1667C24.195 29.3333 26.7092 29.3333 28.2713 27.7712C29.8334 26.2091 29.8334 23.695 29.8334 18.6667Z" fill="#F5F6FA"/>
<path d="M10.8334 3.33334C10.8334 2.78106 10.3856 2.33334 9.83335 2.33334C9.28107 2.33334 8.83335 2.78106 8.83335 3.33334V5.43902C6.91425 5.59269 5.65438 5.96984 4.72878 6.89544C3.80319 7.82104 3.42604 9.0809 3.27236 11H29.7277C29.574 9.0809 29.1969 7.82104 28.2713 6.89544C27.3457 5.96984 26.0858 5.59269 24.1667 5.43902V3.33334C24.1667 2.78106 23.719 2.33334 23.1667 2.33334C22.6144 2.33334 22.1667 2.78106 22.1667 3.33334V5.35055C21.2797 5.33334 20.2854 5.33334 19.1667 5.33334H13.8334C12.7146 5.33334 11.7204 5.33334 10.8334 5.35055V3.33334Z" fill="#F5F6FA"/>
</svg>
