<svg width="32" height="32" viewBox="0 0 32 32" fill="none" xmlns="http://www.w3.org/2000/svg">
<path fill-rule="evenodd" clip-rule="evenodd" d="M9.66002 2.66666H22.34C23.8851 2.66666 24.6577 2.66666 25.2808 2.88347C26.4624 3.2946 27.39 4.24958 27.7894 5.46594C28 6.10739 28 6.90273 28 8.4934V27.1656C28 28.3099 26.6867 28.917 25.8559 28.1568C25.3678 27.7102 24.6322 27.7102 24.1441 28.1568L23.5 28.7462C22.6446 29.529 21.3554 29.529 20.5 28.7462C19.6446 27.9634 18.3554 27.9634 17.5 28.7462C16.6446 29.529 15.3554 29.529 14.5 28.7462C13.6446 27.9634 12.3554 27.9634 11.5 28.7462C10.6446 29.529 9.35545 29.529 8.5 28.7462L7.85587 28.1568C7.36777 27.7102 6.63223 27.7102 6.14413 28.1568C5.31333 28.917 4 28.3099 4 27.1656V8.4934C4 6.90273 4 6.10739 4.21061 5.46594C4.60997 4.24958 5.53763 3.2946 6.71918 2.88347C7.34228 2.66666 8.11486 2.66666 9.66002 2.66666ZM20.0793 11.3327C20.4471 10.9207 20.4113 10.2886 19.9993 9.92073C19.5874 9.5529 18.9552 9.58868 18.5874 10.0007L14.5714 14.4985L13.4126 13.2007C13.0448 12.7887 12.4126 12.7529 12.0007 13.1207C11.5887 13.4886 11.5529 14.1207 11.9207 14.5327L13.8255 16.666C14.0152 16.8785 14.2866 17 14.5714 17C14.8563 17 15.1276 16.8785 15.3174 16.666L20.0793 11.3327ZM10 19.6667C9.44772 19.6667 9 20.1144 9 20.6667C9 21.219 9.44772 21.6667 10 21.6667H22C22.5523 21.6667 23 21.219 23 20.6667C23 20.1144 22.5523 19.6667 22 19.6667H10Z" fill="#F5F6FA"/>
</svg>
