<svg width="32" height="32" viewBox="0 0 32 32" fill="none" xmlns="http://www.w3.org/2000/svg">
<rect width="32" height="32" rx="16" fill="#EDEEFC"/>
<path d="M17.7084 11C18.5223 11.1588 19.2704 11.5569 19.8568 12.1433C20.4432 12.7297 20.8412 13.4777 21 14.2917M17.7084 7.66667C19.3994 7.85453 20.9764 8.61181 22.1802 9.81417C23.3841 11.0165 24.1434 12.5925 24.3334 14.2833M14.5225 17.5526C13.5212 16.5512 12.7306 15.419 12.1506 14.211C12.1007 14.1071 12.0757 14.0552 12.0566 13.9894C11.9885 13.7558 12.0374 13.4689 12.179 13.2711C12.2189 13.2154 12.2665 13.1677 12.3618 13.0725C12.6531 12.7811 12.7988 12.6355 12.8941 12.489C13.2532 11.9366 13.2532 11.2244 12.8941 10.672C12.7988 10.5255 12.6531 10.3799 12.3618 10.0885L12.1994 9.92615C11.7565 9.48328 11.5351 9.26184 11.2973 9.14156C10.8243 8.90233 10.2658 8.90233 9.79281 9.14156C9.55499 9.26184 9.33355 9.48328 8.89069 9.92615L8.75932 10.0575C8.31797 10.4989 8.09729 10.7195 7.92875 11.0196C7.74174 11.3525 7.60727 11.8696 7.60841 12.2514C7.60943 12.5955 7.67618 12.8307 7.80969 13.3011C8.52716 15.8289 9.88089 18.2142 11.8709 20.2042C13.8609 22.1942 16.2462 23.5479 18.774 24.2654C19.2444 24.3989 19.4795 24.4657 19.8237 24.4667C20.2055 24.4678 20.7226 24.3333 21.0555 24.1463C21.3555 23.9778 21.5762 23.7571 22.0176 23.3158L22.1489 23.1844C22.5918 22.7415 22.8132 22.5201 22.9335 22.2823C23.1728 21.8093 23.1728 21.2508 22.9335 20.7778C22.8132 20.54 22.5918 20.3185 22.1489 19.8757L21.9865 19.7133C21.6952 19.4219 21.5495 19.2763 21.4031 19.181C20.8506 18.8219 20.1385 18.8219 19.5861 19.181C19.4396 19.2763 19.2939 19.4219 19.0026 19.7133C18.9073 19.8085 18.8597 19.8562 18.804 19.896C18.6062 20.0377 18.3193 20.0866 18.0857 20.0185C18.0199 19.9994 17.968 19.9744 17.8641 19.9245C16.656 19.3445 15.5238 18.5539 14.5225 17.5526Z" stroke="#4B56E3" stroke-linecap="round" stroke-linejoin="round"/>
</svg>
