<svg width="32" height="32" viewBox="0 0 32 32" fill="none" xmlns="http://www.w3.org/2000/svg">
<rect width="32" height="32" rx="16" fill="#EDEEFC"/>
<path d="M22.6666 13.9167V11.6667C22.6666 10.2665 22.6666 9.56647 22.3941 9.0317C22.1544 8.56129 21.772 8.17884 21.3016 7.93916C20.7668 7.66667 20.0667 7.66667 18.6666 7.66667H13.3333C11.9331 7.66667 11.2331 7.66667 10.6983 7.93916C10.2279 8.17884 9.84542 8.56129 9.60574 9.0317C9.33325 9.56647 9.33325 10.2665 9.33325 11.6667V20.3333C9.33325 21.7335 9.33325 22.4335 9.60574 22.9683C9.84542 23.4387 10.2279 23.8212 10.6983 24.0609C11.2331 24.3333 11.9331 24.3333 13.3333 24.3333H17.6666M17.6666 15.1667H12.6666M14.3333 18.5H12.6666M19.3333 11.8333H12.6666M19.7499 18.5019C19.8967 18.0845 20.1866 17.7325 20.568 17.5083C20.9495 17.2841 21.398 17.2022 21.8341 17.277C22.2702 17.3518 22.6658 17.5785 22.9507 17.917C23.2357 18.2555 23.3916 18.6839 23.391 19.1264C23.391 20.3755 21.5174 21 21.5174 21M21.5415 23.5H21.5498" stroke="#4B56E3" stroke-linecap="round" stroke-linejoin="round"/>
</svg>
