<svg width="25" height="24" viewBox="0 0 25 24" fill="none" xmlns="http://www.w3.org/2000/svg">
<path fill-rule="evenodd" clip-rule="evenodd" d="M19.4553 1.25C19.0224 1.24995 18.6256 1.24991 18.3028 1.29331C17.9473 1.3411 17.5716 1.45355 17.2626 1.76257C16.9535 2.07159 16.8411 2.44732 16.7933 2.8028C16.7499 3.12561 16.75 3.52244 16.75 3.95525V17.0448C16.75 17.4776 16.7499 17.8744 16.7933 18.1972C16.8411 18.5527 16.9535 18.9284 17.2626 19.2374C17.5716 19.5465 17.9473 19.6589 18.3028 19.7067C18.6256 19.7501 19.0224 19.7501 19.4553 19.75H19.5448C19.9776 19.7501 20.3744 19.7501 20.6972 19.7067C21.0527 19.6589 21.4284 19.5465 21.7374 19.2374C22.0465 18.9284 22.1589 18.5527 22.2067 18.1972C22.2501 17.8744 22.2501 17.4776 22.25 17.0448V3.95526C22.2501 3.52245 22.2501 3.12561 22.2067 2.8028C22.1589 2.44732 22.0465 2.07159 21.7374 1.76257C21.4284 1.45355 21.0527 1.3411 20.6972 1.29331C20.3744 1.24991 19.9776 1.24995 19.5448 1.25H19.4553ZM18.3257 2.82187L18.3232 2.82324L18.3219 2.82568C18.3209 2.82761 18.3192 2.83093 18.3172 2.83597C18.3082 2.85775 18.2929 2.90611 18.2799 3.00267C18.2516 3.21339 18.25 3.5074 18.25 4.00001V17C18.25 17.4926 18.2516 17.7866 18.2799 17.9973C18.2929 18.0939 18.3082 18.1423 18.3172 18.164C18.3192 18.1691 18.3209 18.1724 18.3219 18.1743L18.3232 18.1768L18.3257 18.1781C18.3265 18.1786 18.3276 18.1791 18.3289 18.1797C18.3307 18.1806 18.3331 18.1817 18.336 18.1828C18.3578 18.1918 18.4061 18.2071 18.5027 18.2201C18.7134 18.2484 19.0074 18.25 19.5 18.25C19.9926 18.25 20.2866 18.2484 20.4973 18.2201C20.5939 18.2071 20.6423 18.1918 20.664 18.1828C20.6691 18.1808 20.6724 18.1792 20.6743 18.1781L20.6768 18.1768L20.6781 18.1743C20.6792 18.1724 20.6808 18.1691 20.6828 18.164C20.6918 18.1423 20.7071 18.0939 20.7201 17.9973C20.7484 17.7866 20.75 17.4926 20.75 17V4.00001C20.75 3.5074 20.7484 3.21339 20.7201 3.00267C20.7071 2.90611 20.6918 2.85775 20.6828 2.83597C20.6808 2.83093 20.6792 2.82761 20.6781 2.82568L20.6768 2.82324L20.6743 2.82187C20.6724 2.82086 20.6691 2.81924 20.664 2.81717C20.6423 2.80821 20.5939 2.79291 20.4973 2.77993C20.2866 2.7516 19.9926 2.75001 19.5 2.75001C19.0074 2.75001 18.7134 2.7516 18.5027 2.77993C18.4061 2.79291 18.3578 2.80821 18.336 2.81717C18.3309 2.81924 18.3276 2.82086 18.3257 2.82187Z" fill="#8F8F8F"/>
<path fill-rule="evenodd" clip-rule="evenodd" d="M12.4553 4.25H12.5448C12.9776 4.24995 13.3744 4.24991 13.6972 4.29331C14.0527 4.3411 14.4284 4.45355 14.7374 4.76257C15.0465 5.07159 15.1589 5.44732 15.2067 5.8028C15.2501 6.12561 15.2501 6.52243 15.25 6.95524V17.0448C15.2501 17.4776 15.2501 17.8744 15.2067 18.1972C15.1589 18.5527 15.0465 18.9284 14.7374 19.2374C14.4284 19.5465 14.0527 19.6589 13.6972 19.7067C13.3744 19.7501 12.9776 19.7501 12.5448 19.75H12.4553C12.0225 19.7501 11.6256 19.7501 11.3028 19.7067C10.9473 19.6589 10.5716 19.5465 10.2626 19.2374C9.95355 18.9284 9.8411 18.5527 9.79331 18.1972C9.74991 17.8744 9.74995 17.4776 9.75 17.0448V6.95526C9.74995 6.52244 9.74991 6.12561 9.79331 5.8028C9.8411 5.44732 9.95355 5.07159 10.2626 4.76257C10.5716 4.45355 10.9473 4.3411 11.3028 4.29331C11.6256 4.24991 12.0224 4.24995 12.4553 4.25ZM11.3232 5.82324L11.3257 5.82187L11.3234 18.1768L11.3219 18.1743C11.3209 18.1724 11.3192 18.1691 11.3172 18.164C11.3082 18.1423 11.2929 18.0939 11.2799 17.9973C11.2516 17.7866 11.25 17.4926 11.25 17V7.00001C11.25 6.5074 11.2516 6.21339 11.2799 6.00267C11.2929 5.90611 11.3082 5.85775 11.3172 5.83597C11.3192 5.83093 11.3209 5.82761 11.3219 5.82568L11.3232 5.82324ZM11.3234 18.1768L11.3257 5.82187L11.3295 5.81999L11.336 5.81717C11.3578 5.80821 11.4061 5.79291 11.5027 5.77993C11.7134 5.7516 12.0074 5.75001 12.5 5.75001C12.9926 5.75001 13.2866 5.7516 13.4973 5.77993C13.5939 5.79291 13.6423 5.80821 13.664 5.81717C13.6691 5.81924 13.6724 5.82086 13.6743 5.82187L13.6768 5.82324L13.6781 5.82568C13.6792 5.82761 13.6808 5.83093 13.6828 5.83597C13.6918 5.85775 13.7071 5.90611 13.7201 6.00267C13.7484 6.21339 13.75 6.5074 13.75 7.00001V17C13.75 17.4926 13.7484 17.7866 13.7201 17.9973C13.7071 18.0939 13.6918 18.1423 13.6828 18.164C13.6808 18.1691 13.6792 18.1724 13.6781 18.1743L13.6768 18.1768L13.6743 18.1781C13.6731 18.1788 13.6712 18.1797 13.6686 18.1809C13.6673 18.1815 13.6658 18.1821 13.664 18.1828C13.6423 18.1918 13.5939 18.2071 13.4973 18.2201C13.2866 18.2484 12.9926 18.25 12.5 18.25C12.0074 18.25 11.7134 18.2484 11.5027 18.2201C11.4061 18.2071 11.3578 18.1918 11.336 18.1828C11.3309 18.1808 11.3276 18.1792 11.3257 18.1781L11.3234 18.1768Z" fill="#8F8F8F"/>
<path fill-rule="evenodd" clip-rule="evenodd" d="M5.45526 8.25C5.02244 8.24995 4.62561 8.24991 4.3028 8.29331C3.94732 8.3411 3.57159 8.45355 3.26257 8.76257C2.95355 9.07159 2.8411 9.44732 2.79331 9.8028C2.74991 10.1256 2.74995 10.5224 2.75 10.9553V17.0448C2.74995 17.4776 2.74991 17.8744 2.79331 18.1972C2.8411 18.5527 2.95355 18.9284 3.26257 19.2374C3.57159 19.5465 3.94732 19.6589 4.3028 19.7067C4.62561 19.7501 5.02245 19.7501 5.45526 19.75H5.54475C5.97757 19.7501 6.3744 19.7501 6.69721 19.7067C7.0527 19.6589 7.42842 19.5465 7.73744 19.2374C8.04647 18.9284 8.15891 18.5527 8.20671 18.1972C8.25011 17.8744 8.25006 17.4776 8.25001 17.0448V10.9553C8.25006 10.5224 8.25011 10.1256 8.20671 9.8028C8.15891 9.44732 8.04647 9.07159 7.73744 8.76257C7.42842 8.45355 7.0527 8.3411 6.69721 8.29331C6.3744 8.24991 5.97757 8.24995 5.54476 8.25H5.45526ZM4.32568 9.82187L4.32324 9.82324L4.32187 9.82568C4.32086 9.82761 4.31924 9.83093 4.31717 9.83597C4.30821 9.85775 4.29291 9.90611 4.27993 10.0027C4.2516 10.2134 4.25001 10.5074 4.25001 11V17C4.25001 17.4926 4.2516 17.7866 4.27993 17.9973C4.29291 18.0939 4.30821 18.1423 4.31717 18.164C4.31924 18.1691 4.32086 18.1724 4.32187 18.1743L4.32284 18.1761L4.32568 18.1781C4.32761 18.1792 4.33093 18.1808 4.33597 18.1828C4.35775 18.1918 4.40611 18.2071 4.50267 18.2201C4.71339 18.2484 5.0074 18.25 5.50001 18.25C5.99261 18.25 6.28662 18.2484 6.49734 18.2201C6.5939 18.2071 6.64226 18.1918 6.66404 18.1828C6.66909 18.1808 6.6724 18.1792 6.67434 18.1781L6.67677 18.1768L6.67815 18.1743L6.68036 18.1698L6.68285 18.164C6.69181 18.1423 6.7071 18.0939 6.72008 17.9973C6.74841 17.7866 6.75001 17.4926 6.75001 17V11C6.75001 10.5074 6.74841 10.2134 6.72008 10.0027C6.7071 9.90611 6.69181 9.85775 6.68285 9.83597C6.68077 9.83093 6.67916 9.82761 6.67815 9.82568L6.67677 9.82324L6.67434 9.82187C6.6724 9.82086 6.66909 9.81924 6.66404 9.81717C6.64226 9.8082 6.5939 9.79291 6.49734 9.77993C6.28662 9.7516 5.99261 9.75001 5.50001 9.75001C5.0074 9.75001 4.71339 9.7516 4.50267 9.77993C4.40611 9.79291 4.35775 9.8082 4.33597 9.81717C4.33093 9.81924 4.32761 9.82086 4.32568 9.82187Z" fill="#8F8F8F"/>
<path d="M3.50001 21.25C3.08579 21.25 2.75001 21.5858 2.75001 22C2.75001 22.4142 3.08579 22.75 3.50001 22.75H21.5C21.9142 22.75 22.25 22.4142 22.25 22C22.25 21.5858 21.9142 21.25 21.5 21.25H3.50001Z" fill="#8F8F8F"/>
</svg>
