<svg width="25" height="24" viewBox="0 0 25 24" fill="none" xmlns="http://www.w3.org/2000/svg">
<path d="M17.7929 2.29289C17.5 2.58579 17.5 3.05719 17.5 4V17C17.5 17.9428 17.5 18.4142 17.7929 18.7071C18.0858 19 18.5572 19 19.5 19C20.4428 19 20.9142 19 21.2071 18.7071C21.5 18.4142 21.5 17.9428 21.5 17V4C21.5 3.05719 21.5 2.58579 21.2071 2.29289C20.9142 2 20.4428 2 19.5 2C18.5572 2 18.0858 2 17.7929 2.29289Z" fill="#4B56E3"/>
<path d="M10.5 7C10.5 6.05719 10.5 5.58579 10.7929 5.29289C11.0858 5 11.5572 5 12.5 5C13.4428 5 13.9142 5 14.2071 5.29289C14.5 5.58579 14.5 6.05719 14.5 7V17C14.5 17.9428 14.5 18.4142 14.2071 18.7071C13.9142 19 13.4428 19 12.5 19C11.5572 19 11.0858 19 10.7929 18.7071C10.5 18.4142 10.5 17.9428 10.5 17V7Z" fill="#4B56E3"/>
<path d="M3.79289 9.29289C3.5 9.58579 3.5 10.0572 3.5 11V17C3.5 17.9428 3.5 18.4142 3.79289 18.7071C4.08579 19 4.55719 19 5.5 19C6.44281 19 6.91421 19 7.20711 18.7071C7.5 18.4142 7.5 17.9428 7.5 17V11C7.5 10.0572 7.5 9.58579 7.20711 9.29289C6.91421 9 6.44281 9 5.5 9C4.55719 9 4.08579 9 3.79289 9.29289Z" fill="#4B56E3"/>
<path d="M3.5 21.25C3.08579 21.25 2.75 21.5858 2.75 22C2.75 22.4142 3.08579 22.75 3.5 22.75H21.5C21.9142 22.75 22.25 22.4142 22.25 22C22.25 21.5858 21.9142 21.25 21.5 21.25H3.5Z" fill="#4B56E3"/>
</svg>
