<svg width="32" height="32" viewBox="0 0 32 32" fill="none" xmlns="http://www.w3.org/2000/svg">
<rect width="32" height="32" rx="16" fill="#EDEEFC"/>
<path d="M22.6666 14.3333V11.6667C22.6666 10.2665 22.6666 9.56646 22.3941 9.03168C22.1544 8.56128 21.772 8.17882 21.3016 7.93914C20.7668 7.66666 20.0667 7.66666 18.6666 7.66666H13.3333C11.9331 7.66666 11.2331 7.66666 10.6983 7.93914C10.2279 8.17882 9.84542 8.56128 9.60574 9.03168C9.33325 9.56646 9.33325 10.2665 9.33325 11.6667V20.3333C9.33325 21.7335 9.33325 22.4335 9.60574 22.9683C9.84542 23.4387 10.2279 23.8212 10.6983 24.0608C11.2331 24.3333 11.9331 24.3333 13.3333 24.3333H16.4166M20.9999 23.5C20.9999 23.5 23.4999 22.3084 23.4999 20.521V18.4357L21.6769 17.7843C21.2389 17.6274 20.7599 17.6274 20.3219 17.7843L18.4999 18.4357V20.521C18.4999 22.3084 20.9999 23.5 20.9999 23.5Z" stroke="#4B56E3" stroke-linecap="round" stroke-linejoin="round"/>
</svg>
